# xmcd
#
# Track frame offsets:
#	150
#	18617
#	25474
#	47859
#	106590
#	111765
#	140475
#	163990
#	194615
#
# Disc length: 4248 seconds
#
# Revision: 0
# Processed by: cddbd v1.5.2PL0 Copyright (c) Steve Scherf et al.
# Submitted via: EasyCDDAExtractor 11.6.0.1
#
DISCID=7e109609
DTITLE=Jimi Hendrix - Studio 69 [CD12)
DYEAR=1969
DGENRE=Blues
TTITLE0=Untitled Jam
TTITLE1=Power Of Soul
TTITLE2=Message To Love
TTITLE3=Room Full Of Mirrors - I´m A Man
TTITLE4=Stepping Stone
TTITLE5=Jungle
TTITLE6=Untitled Guitar Improv
TTITLE7=Untitled Instrumental Jam 1
TTITLE8=Untitled Instrumental Jam aka Keep On Groowin´ mono
EXTD=
EXTT0=
EXTT1=
EXTT2=
EXTT3=
EXTT4=
EXTT5=
EXTT6=
EXTT7=
EXTT8=
PLAYORDER=
